<?xml version="1.0" encoding="UTF-8" standalone="no"?><!DOCTYPE svg PUBLIC "-//W3C//DTD SVG 1.1//EN" "http://www.w3.org/Graphics/SVG/1.1/DTD/svg11.dtd"><svg width="100%" height="100%" viewBox="0 0 2238 814" version="1.1" xmlns="http://www.w3.org/2000/svg" xmlns:xlink="http://www.w3.org/1999/xlink" xml:space="preserve" style="fill-rule:evenodd;clip-rule:evenodd;stroke-linecap:round;stroke-linejoin:round;stroke-miterlimit:1.5;"><path id="Left" d="M809.062,95.963c112.604,0 219.436,13.274 309.938,41.476c10.596,3.302 -106.748,19.26 -195.079,88.394c-56.737,44.406 -112.542,90.98 -114.859,181.167c-1.817,70.767 35.663,107.621 70.872,144.304c90.11,93.879 248.228,122.472 238.998,125.087c-81.51,23.096 -197.025,41.646 -309.87,41.646c-342.12,0 -619.879,-139.371 -619.879,-311.037c0,-171.666 277.759,-311.037 619.879,-311.037l0,0Z" style="fill:#2ab77e;fill-opacity:0.6;"/><ellipse id="Right" cx="1428.94" cy="407" rx="619.879" ry="311.037" style="fill:none;stroke:#000;stroke-width:5.5px;"/><ellipse id="Left1" cx="809.062" cy="407" rx="619.879" ry="311.037" style="fill:none;stroke:#000;stroke-width:5.5px;"/></svg>