<?xml version="1.0" encoding="UTF-8" standalone="no"?><!DOCTYPE svg PUBLIC "-//W3C//DTD SVG 1.1//EN" "http://www.w3.org/Graphics/SVG/1.1/DTD/svg11.dtd"><svg width="100%" height="100%" viewBox="0 0 140 140" version="1.1" xmlns="http://www.w3.org/2000/svg" xmlns:xlink="http://www.w3.org/1999/xlink" xml:space="preserve" style="fill-rule:evenodd;clip-rule:evenodd;stroke-linejoin:round;stroke-miterlimit:1.41421;"><g id="settings"><path d="M79.044,4.687c4.402,-0.232 8.624,1.569 12.664,5.403l29.3,28.169l3.141,-3.601l11.185,10.753l-17.042,19.991l-11.189,-10.833l2.781,-3.261l-29.456,-28.322c-3.41,-3.228 -7.641,-4.709 -12.695,-4.443c-3.35,0.176 -6.572,1.013 -9.661,2.507c6.579,-10.518 13.57,-15.973 20.972,-16.363Z" style="fill-rule:nonzero;"/><path d="M100.138,16.599l13.468,12.948l2.353,-2.76l-13.468,-12.949l-2.353,2.761Z"/><path d="M45.41,78.687l-35.791,40.139l17.169,16.507l34.124,-41.798l-15.502,-14.848Z" style="fill-rule:nonzero;"/><g><path d="M80.06,70.066l20.927,-25.639l-13.546,-13.024l-21.942,24.718l14.561,13.945Z" style="fill-rule:nonzero;"/><path d="M119.565,115.101c0.413,-1.887 0.576,-3.758 0.489,-5.618c-0.256,-5.47 -2.274,-10.025 -6.055,-13.659c-3.78,-3.635 -8.271,-5.315 -13.475,-5.041c-1.75,0.093 -3.49,0.424 -5.219,0.994l-18.505,-17.715l0.081,-0.1l-14.711,-14.091l-0.024,0.026l-19.375,-18.628c0.367,-1.829 0.505,-3.674 0.419,-5.533c-0.261,-5.578 -2.282,-10.184 -6.062,-13.82c-3.78,-3.634 -8.247,-5.316 -13.399,-5.045c-1.8,0.096 -3.563,0.455 -5.289,1.078l14.964,14.387l-13.258,15.637l-14.968,-14.386c-0.412,1.886 -0.576,3.759 -0.489,5.617c0.256,5.472 2.274,10.025 6.055,13.66c3.78,3.634 8.247,5.316 13.399,5.043c1.902,-0.1 3.763,-0.49 5.586,-1.174l6.495,6.244l0.014,-0.016l42.288,40.503l-0.079,0.092l3.659,3.533c-0.458,1.995 -0.642,3.975 -0.55,5.94c0.258,5.525 2.266,10.106 6.02,13.742c3.757,3.636 8.235,5.317 13.438,5.042c1.751,-0.092 3.489,-0.452 5.214,-1.074l-14.964,-14.388l13.333,-15.641l14.968,14.391Z" style="fill-rule:nonzero;"/></g></g></svg>