<?xml version="1.0" encoding="UTF-8" standalone="no"?><!DOCTYPE svg PUBLIC "-//W3C//DTD SVG 1.1//EN" "http://www.w3.org/Graphics/SVG/1.1/DTD/svg11.dtd"><svg width="100%" height="100%" viewBox="0 0 2363 814" version="1.1" xmlns="http://www.w3.org/2000/svg" xmlns:xlink="http://www.w3.org/1999/xlink" xml:space="preserve" style="fill-rule:evenodd;clip-rule:evenodd;stroke-linecap:round;stroke-linejoin:round;stroke-miterlimit:1.5;"><path id="Left" d="M1296.41,179.963c-33.914,-13.244 -104.506,-41.459 -114.016,-42.524c-4.797,-0.537 -156.33,50.06 -211.16,101.394c-19.73,18.472 -100.44,77.98 -99.669,168.167c0.604,70.767 55.875,133.955 98.289,168.304c76.579,62.016 210.046,97.938 212.563,101.087c3.223,4.033 165.132,-62.557 193.993,-87.354c81.62,-70.125 104.821,-91.237 115.034,-182.037c12.875,-114.479 -165.882,-215.653 -195.034,-227.037l0,0Z" style="fill:#de5833;fill-opacity:0.6;"/><ellipse id="Right" cx="1491.44" cy="407" rx="619.879" ry="311.037" style="fill:none;stroke:#000;stroke-width:5.5px;"/><ellipse id="Left1" cx="871.563" cy="407" rx="619.879" ry="311.037" style="fill:none;stroke:#000;stroke-width:5.5px;"/></svg>